<svg xmlns="http://www.w3.org/2000/svg" version="1.1" viewBox="272.64 226.56 1378.56 1466.88" style="max-height: 500px" width="1378.56" height="1466.88">
<path transform="translate(0,0)" fill="none" d="M0 0 C633.6 0 1267.2 0 1920 0 C1920 633.6 1920 1267.2 1920 1920 C1286.4 1920 652.8 1920 0 1920 C0 1286.4 0 652.8 0 0 Z"/>
<path transform="translate(916.1015625,737.796875)" fill="#292B2A" d="M0 0 C1.39826995 -0.00702685 2.7965396 -0.01411362 4.19480896 -0.02125549 C8.63768991 -0.04063954 13.08051852 -0.04568991 17.5234375 -0.046875 C18.28148052 -0.04731686 19.03952354 -0.04775871 19.82053757 -0.04821396 C43.62549969 -0.0554856 67.23997177 0.32464712 90.8984375 3.203125 C91.6110675 3.28798157 92.32369751 3.37283813 93.05792236 3.46026611 C122.75134892 7.01403798 152.31199813 12.53266932 181.37060547 19.58935547 C183.08687654 20.00607417 184.80472486 20.41633934 186.52392578 20.82080078 C202.43350985 24.58240268 217.75474486 29.74932395 233.14825439 35.19366455 C238.95807657 37.24244722 244.80469436 39.17135591 250.66162109 41.08081055 C254.44933123 42.39413861 258.02566255 43.98025997 261.64453125 45.6953125 C266.08442978 47.75269645 270.58468035 49.65952361 275.0859375 51.578125 C276.93489645 52.3710923 278.78385479 53.16406104 280.6328125 53.95703125 C283.76088791 55.29595082 286.89402907 56.6194394 290.0390625 57.91796875 C301.78433659 62.82391965 312.8081643 68.97982204 323.8984375 75.203125 C325.13402058 75.88949217 326.36968448 76.57571389 327.60546875 77.26171875 C331.05967665 79.20392754 334.48571409 81.18931443 337.8984375 83.203125 C338.73455566 83.69506348 339.57067383 84.18700195 340.43212891 84.69384766 C353.0132515 92.12924501 365.13573344 99.91954534 376.84033203 108.67138672 C378.86714601 110.17983641 380.90853472 111.6656967 382.95703125 113.14453125 C395.86317546 122.47259145 407.96018771 132.67535033 419.8984375 143.203125 C421.027052 144.19493774 421.027052 144.19493774 422.1784668 145.20678711 C428.3558877 150.69352652 434.26738601 156.41676952 440.0949707 162.26928711 C441.59148675 163.77119425 443.0933205 165.26763562 444.59570312 166.76367188 C449.90558453 172.0691795 455.07167301 177.44869868 459.8984375 183.203125 C460.64613403 184.09076538 460.64613403 184.09076538 461.40893555 184.99633789 C474.24225823 200.37486963 486.52541218 216.19462457 496.81494141 233.40087891 C498.51659194 236.23133952 500.27583533 239.02587704 502.0234375 241.828125 C503.3168341 243.9520725 504.60854637 246.07704677 505.8984375 248.203125 C506.49785156 249.15960937 507.09726563 250.11609375 507.71484375 251.1015625 C518.59890929 269.14320768 526.6352969 289.473794 533.8984375 309.203125 C539.78092946 307.33713191 545.45252252 305.2202997 551.0859375 302.703125 C551.75818359 302.40792969 552.43042969 302.11273437 553.12304688 301.80859375 C557.10614736 300.04780736 561.01788172 298.1826309 564.8984375 296.203125 C563.96902344 295.49027344 563.03960938 294.77742188 562.08203125 294.04296875 C541.28405669 277.98484079 524.22977358 255.98239556 520.18359375 229.23046875 C518.3409025 209.66765074 521.86287858 193.17459035 534.2734375 177.453125 C546.24392078 163.45778385 561.5175612 154.70746033 579.8984375 152.203125 C601.79233275 151.06337016 619.94289183 157.06878863 636.47265625 171.44140625 C652.58325611 186.51579601 661.09539161 207.4643363 662.25 229.34375 C662.53506886 239.63757688 661.43819476 249.22550719 658.8984375 259.203125 C665.98272443 255.26741004 671.3446315 249.99328948 676.84814453 244.14208984 C680.85654976 239.95598891 684.48527366 236.74121265 690.42578125 235.8046875 C696.81478284 235.86681718 701.93999771 236.41373891 706.8125 241.0078125 C711.70941581 246.34807048 714.46567407 250.60264803 714.19921875 258.10546875 C712.30940152 271.28510318 697.85532039 281.6002308 687.8984375 289.203125 C671.07698352 301.5524367 649.31331894 313.43183682 627.828125 313.18359375 C616.15086751 313.15593146 610.05175139 315.83746919 600.84960938 322.80371094 C597.4467668 325.24428822 593.81538447 327.25250795 590.1484375 329.265625 C589.02876587 329.88171631 589.02876587 329.88171631 587.88647461 330.51025391 C580.06780677 334.7452614 572.04700378 338.5407014 563.96777344 342.24853516 C562.12778245 343.0973276 560.29751169 343.96712035 558.46875 344.83984375 C557.51742188 345.28972656 556.56609375 345.73960937 555.5859375 346.203125 C554.80605469 346.574375 554.02617188 346.945625 553.22265625 347.328125 C550.47501622 348.36253066 547.80024904 348.80114245 544.8984375 349.203125 C545.00389893 349.75323242 545.10936035 350.30333984 545.21801758 350.87011719 C562.42595291 441.88636984 545.10882326 534.86797251 492.8984375 612.203125 C492.47062988 612.8420166 492.04282227 613.4809082 491.60205078 614.13916016 C482.71246559 627.38870755 473.13256007 639.95872836 462.8984375 652.203125 C462.08375 653.20472656 461.2690625 654.20632813 460.4296875 655.23828125 C452.73851429 664.52304691 444.27445607 673.04355543 435.7734375 681.578125 C435.17292572 682.18381317 434.57241394 682.78950134 433.95370483 683.4135437 C427.31729932 690.09495867 420.6446644 696.48986674 413.24414062 702.32885742 C410.91985649 704.18601076 408.71677695 706.13145707 406.5234375 708.140625 C401.42161594 712.72407966 395.99016596 716.85193168 390.51855469 720.97705078 C389.01553665 722.11450656 387.52292624 723.26567934 386.03125 724.41796875 C377.9087746 730.63919991 369.43480241 736.2876435 360.87988281 741.89306641 C359.61072181 742.73218887 358.34883543 743.58248448 357.09667969 744.44677734 C353.0995519 747.203125 353.0995519 747.203125 350.8984375 747.203125 C350.72828125 747.904375 350.558125 748.605625 350.3828125 749.328125 C348.16064426 758.02767727 348.16064426 758.02767727 346.0859375 761.890625 C344.0326615 765.71612021 342.5202531 769.69865107 341.0234375 773.765625 C337.34725829 783.72108478 333.46105436 793.57099274 329.28515625 803.328125 C324.64949352 814.16345101 320.05883877 824.91617756 316.41015625 836.12890625 C314.78127927 840.8164184 312.59046951 845.24585096 310.48803711 849.73510742 C307.92823175 855.31981563 305.63353887 861.00664685 303.3359375 866.703125 C302.88025391 867.82332031 302.42457031 868.94351563 301.95507812 870.09765625 C298.84507735 877.76869657 295.87131059 885.47365496 292.8984375 893.203125 C284.4834375 913.993125 284.4834375 913.993125 275.8984375 935.203125 C223.4284375 935.203125 170.9584375 935.203125 116.8984375 935.203125 C113.9284375 916.888125 113.9284375 916.888125 110.8984375 898.203125 C109.4134375 890.778125 109.4134375 890.778125 107.8984375 883.203125 C107.3427027 879.63901248 106.81063048 876.08919156 106.3359375 872.515625 C106.08704171 870.70557699 105.83705 868.89567932 105.5859375 867.0859375 C105.46863281 866.2393457 105.35132813 865.39275391 105.23046875 864.52050781 C104.81695575 861.63443031 104.33679659 858.76273885 103.8359375 855.890625 C103.02637544 851.22413983 102.41483259 846.54732344 101.83984375 841.84765625 C101.74868286 841.11019165 101.65752197 840.37272705 101.56359863 839.61291504 C101.34085387 837.80977794 101.11950287 836.00646876 100.8984375 834.203125 C99.93357422 834.31906006 98.96871094 834.43499512 97.97460938 834.55444336 C94.2627712 834.99791028 90.54957374 835.4290532 86.8359375 835.85717773 C85.25353521 836.04118906 83.67147658 836.22818935 82.08984375 836.41870117 C60.4024309 839.02536137 38.66016274 839.41009238 16.8359375 839.390625 C15.78003418 839.39068542 14.72413086 839.39074585 13.63623047 839.39080811 C-8.32638849 839.37302695 -30.2232813 838.69082228 -52.0078125 835.66796875 C-55.68914183 835.19043085 -59.37276022 835.00644349 -63.078125 834.796875 C-70.46823923 834.32529185 -77.68510768 833.33117558 -84.98339844 832.10131836 C-86.99556722 831.76242418 -89.00925562 831.43411828 -91.0234375 831.10742188 C-97.76914267 829.99538236 -104.44769447 828.77519272 -111.1015625 827.203125 C-111.21886719 828.42902344 -111.33617187 829.65492188 -111.45703125 830.91796875 C-112.12738838 836.92770277 -113.25932755 842.83287075 -114.4140625 848.765625 C-114.63771484 849.92312256 -114.86136719 851.08062012 -115.09179688 852.27319336 C-116.52688708 859.58407848 -118.18543526 866.77036043 -120.07421875 873.9765625 C-121.68276499 880.35111355 -122.86285112 886.82637739 -124.08789062 893.28344727 C-126.09914681 903.69581662 -128.63506313 913.84382764 -131.1015625 924.203125 C-183.2415625 924.203125 -235.3815625 924.203125 -289.1015625 924.203125 C-293.59899101 907.33776808 -293.59899101 907.33776808 -294.953125 901.23828125 C-295.09809418 900.59040146 -295.24306335 899.94252167 -295.39242554 899.27500916 C-295.84002792 897.27251132 -296.2835632 895.26914558 -296.7265625 893.265625 C-297.32146636 890.58951921 -297.91832859 887.91385388 -298.515625 885.23828125 C-298.79180664 883.99836426 -299.06798828 882.75844727 -299.35253906 881.48095703 C-299.92481232 878.97660867 -300.53081165 876.49446156 -301.1875 874.01171875 C-301.94387382 870.86016117 -302.5246431 867.78148557 -303.0390625 864.5859375 C-304.15077871 857.69372788 -305.59929632 850.89459803 -307.1015625 844.078125 C-307.24884796 843.40549622 -307.39613342 842.73286743 -307.54788208 842.03985596 C-310.02598521 830.73742772 -312.68909394 819.48317558 -315.39920044 808.23443604 C-319.0059477 793.2614549 -322.47381692 778.27082319 -325.6640625 763.203125 C-325.83404755 762.40847839 -326.00403259 761.61383179 -326.1791687 760.79510498 C-326.66084848 758.53652856 -327.13581126 756.27673033 -327.60546875 754.015625 C-327.74973801 753.32232086 -327.89400726 752.62901672 -328.04264832 751.91470337 C-328.97477168 747.27098548 -329.5161035 742.72229558 -329.61303711 737.98828125 C-329.92838037 736.02990857 -329.92838037 736.02990857 -331.87280273 735.13525391 C-332.60829346 734.82765137 -333.34378418 734.52004883 -334.1015625 734.203125 C-335.51999173 733.23973412 -336.91734915 732.24488068 -338.296875 731.2265625 C-339.09029297 730.64221436 -339.88371094 730.05786621 -340.70117188 729.45581055 C-341.53455078 728.83617432 -342.36792969 728.21653809 -343.2265625 727.578125 C-344.08314453 726.94366455 -344.93972656 726.3092041 -345.82226562 725.65551758 C-351.68726613 721.29523536 -357.45550885 716.84412198 -363.1015625 712.203125 C-363.95363281 711.52378906 -364.80570313 710.84445312 -365.68359375 710.14453125 C-372.54600618 704.63692986 -379.00459741 698.77921183 -385.42236328 692.76904297 C-387.11855052 691.18728301 -388.82487533 689.61728394 -390.53515625 688.05078125 C-398.43523055 680.81395946 -406.17965562 673.55407656 -413.171875 665.41796875 C-416.3340256 661.78853679 -419.60818895 658.26113973 -422.8671875 654.71875 C-425.1015625 652.203125 -425.1015625 652.203125 -426.41015625 649.859375 C-428.10485269 647.83439483 -428.10485269 647.83439483 -431.43359375 648.03125 C-432.92847533 648.15621235 -434.42194936 648.29857757 -435.9140625 648.453125 C-458.46321628 650.15612896 -482.7583244 651.15806084 -505.1015625 647.203125 C-505.83600586 647.07421875 -506.57044922 646.9453125 -507.32714844 646.8125 C-528.47075678 642.93063056 -548.69594542 635.47291646 -565.1015625 621.203125 C-565.90851563 620.51605469 -566.71546875 619.82898437 -567.546875 619.12109375 C-588.53461022 600.7969396 -600.20019884 577.17641762 -609.1015625 551.203125 C-609.48054688 550.130625 -609.85953125 549.058125 -610.25 547.953125 C-615.15106312 533.21072714 -617.65705411 517.51437209 -620.1015625 502.203125 C-620.22982422 501.41945557 -620.35808594 500.63578613 -620.49023438 499.82836914 C-626.24653798 463.65094466 -626.62470312 426.73980237 -626.1015625 390.203125 C-617.67364731 387.0222489 -617.67364731 387.0222489 -613.7890625 385.73046875 C-587.33344921 376.79207287 -562.19249866 365.30634904 -538.1015625 351.203125 C-537.31249512 350.74147949 -536.52342773 350.27983398 -535.71044922 349.80419922 C-526.87605684 344.61384386 -518.10654481 339.32536961 -509.5390625 333.703125 C-508.92603271 333.30617432 -508.31300293 332.90922363 -507.68139648 332.50024414 C-502.84290197 329.26974194 -500.18695586 326.32660716 -498.6015625 320.71875 C-498.3540625 319.86539062 -498.1065625 319.01203125 -497.8515625 318.1328125 C-497.6040625 317.24851562 -497.3565625 316.36421875 -497.1015625 315.453125 C-486.66127354 278.80336063 -466.5046876 232.6062501 -439.1015625 205.203125 C-438.3852922 199.30331967 -440.62207776 194.64884568 -442.8515625 189.328125 C-443.37363281 188.03841797 -443.37363281 188.03841797 -443.90625 186.72265625 C-445.82810149 182.03191501 -447.92351557 177.48966807 -450.23046875 172.97753906 C-451.4208346 170.55276916 -452.32508266 168.06035351 -453.2265625 165.515625 C-456.89109244 155.79616405 -461.54775646 146.52975781 -466.1015625 137.203125 C-466.60212158 136.16913574 -466.60212158 136.16913574 -467.11279297 135.11425781 C-480.16799787 108.1745073 -495.1163745 82.14965695 -511.01586914 56.79956055 C-511.77758423 55.58393433 -511.77758423 55.58393433 -512.5546875 54.34375 C-512.99973633 53.63766602 -513.44478516 52.93158203 -513.90332031 52.20410156 C-515.07614201 50.24557535 -516.10922641 48.25810207 -517.1015625 46.203125 C-505.37602318 38.09908055 -492.79502592 32.15361459 -479.2265625 27.828125 C-478.10507812 27.47028931 -478.10507812 27.47028931 -476.9609375 27.10522461 C-465.6246956 23.66581876 -454.56950002 22.76497328 -442.7890625 22.765625 C-442.04366211 22.76389282 -441.29826172 22.76216064 -440.53027344 22.76037598 C-423.64782668 22.77754763 -408.70471376 25.71458687 -393.1015625 32.203125 C-392.00070312 32.63753906 -390.89984375 33.07195313 -389.765625 33.51953125 C-364.85973583 43.73158606 -343.28549089 59.00821175 -323.46484375 77.05859375 C-320.57747673 79.67870035 -317.64139759 82.23929253 -314.6953125 84.79296875 C-313.4585326 85.88727645 -312.26928119 87.03540631 -311.1015625 88.203125 C-306.63241559 87.92822141 -303.34343056 85.73021224 -299.6640625 83.390625 C-276.37698266 69.06459038 -251.77368348 57.05472861 -226.5390625 46.578125 C-225.34466553 46.08119141 -224.15026855 45.58425781 -222.91967773 45.07226562 C-217.16570537 42.72160959 -211.46065025 40.63162221 -205.48266602 38.93481445 C-202.08938479 37.89209285 -198.84462802 36.54031256 -195.5625 35.19384766 C-179.57723264 28.75850887 -162.76251266 24.47162288 -146.1015625 20.203125 C-144.84706299 19.88053711 -143.59256348 19.55794922 -142.30004883 19.22558594 C-133.05213732 16.8670453 -123.76870179 14.7225922 -114.4140625 12.828125 C-113.69154297 12.68138336 -112.96902344 12.53464172 -112.22460938 12.38345337 C-98.7566 9.67935685 -85.21843318 7.68075469 -71.6015625 5.890625 C-70.66696198 5.76770081 -69.73236145 5.64477661 -68.7694397 5.51812744 C-59.27699252 4.28064096 -49.77469793 3.13109567 -40.2578125 2.09765625 C-39.56844604 2.02093185 -38.87907959 1.94420746 -38.16882324 1.86515808 C-25.46987769 0.52935262 -12.76389934 0.04368953 0 0 Z"/>
<path transform="translate(965.625,246.6875)" fill="#2A2C2B" d="M0 0 C0.71921631 -0.00261841 1.43843262 -0.00523682 2.17944336 -0.00793457 C15.87908562 -0.01323336 28.95126604 1.51692878 42.375 4.3125 C43.14618164 4.46203125 43.91736328 4.6115625 44.71191406 4.765625 C62.72694971 8.26652262 80.30753954 14.54779562 96.43603516 23.27832031 C98.47532154 24.36600819 100.53593949 25.40080623 102.60546875 26.4296875 C112.64143599 31.47653939 121.53032531 37.40686044 130.375 44.3125 C131.71111328 45.32957031 131.71111328 45.32957031 133.07421875 46.3671875 C140.22678216 51.91877456 146.81196786 58.08665521 153.375 64.3125 C154.13039063 65.02535156 154.88578125 65.73820312 155.6640625 66.47265625 C168.30005592 78.73108014 178.10161521 93.44485256 187.21289062 108.40820312 C188.26199476 110.12732335 189.32546127 111.83765879 190.390625 113.546875 C194.03882559 119.54261336 196.80358413 125.51258172 199.1953125 132.109375 C200.31604171 135.15241459 201.56961152 138.09497092 202.875 141.0625 C207.22046807 151.44258361 210.03227168 162.36700877 212.5625 173.3125 C212.71726807 173.96234863 212.87203613 174.61219727 213.03149414 175.28173828 C216.06517907 189.00343009 216.75452064 202.93489333 216.6875 216.9375 C216.68600952 217.7153183 216.68451904 218.4931366 216.6829834 219.29452515 C216.619832 237.73214133 215.05126993 255.66526391 209.375 273.3125 C209.04661133 274.34020508 208.71822266 275.36791016 208.37988281 276.42675781 C200.7830217 300.03719386 200.7830217 300.03719386 196.375 309.3125 C196.07754883 309.95058594 195.78009766 310.58867188 195.47363281 311.24609375 C188.14864403 326.78248361 179.22975729 341.00358908 168.375 354.3125 C167.88757324 354.91352539 167.40014648 355.51455078 166.89794922 356.13378906 C165.3999415 357.97240551 163.89058549 359.80085518 162.375 361.625 C161.90586182 362.19500732 161.43672363 362.76501465 160.95336914 363.35229492 C159.80568207 364.71175884 158.5954146 366.01792826 157.375 367.3125 C156.715 367.3125 156.055 367.3125 155.375 367.3125 C155.10558594 367.90675781 154.83617187 368.50101563 154.55859375 369.11328125 C150.48911189 376.67472775 141.9488827 382.09282 135.375 387.3125 C133.90740234 388.50552734 133.90740234 388.50552734 132.41015625 389.72265625 C94.31531207 420.03519935 45.79634044 435.47523869 -2.5625 435.5 C-3.81740234 435.51224609 -5.07230469 435.52449219 -6.36523438 435.53710938 C-14.96049212 435.55040787 -23.15270114 434.71695637 -31.625 433.3125 C-33.18191349 433.08464042 -34.73915541 432.85900067 -36.296875 432.63671875 C-79.53597444 426.04618058 -122.20946539 404.99242173 -152.625 373.3125 C-153.8315625 372.1059375 -153.8315625 372.1059375 -155.0625 370.875 C-155.908125 370.029375 -156.75375 369.18375 -157.625 368.3125 C-158.23472656 367.74917969 -158.84445312 367.18585938 -159.47265625 366.60546875 C-176.86039222 350.10132009 -188.99434263 328.56865923 -199.625 307.3125 C-199.93920898 306.7035791 -200.25341797 306.0946582 -200.57714844 305.46728516 C-207.35270179 292.20180743 -210.3285681 277.75167153 -213.625 263.3125 C-213.92434448 262.01252075 -213.92434448 262.01252075 -214.22973633 260.6862793 C-223.86587657 218.22578339 -218.76522972 172.16889557 -201.625 132.3125 C-201.15755371 131.21035156 -201.15755371 131.21035156 -200.68066406 130.0859375 C-193.38408589 113.09919467 -183.87147999 97.09232444 -171.97949219 82.92724609 C-170.6087796 81.29316299 -169.26045471 79.6424341 -167.9140625 77.98828125 C-158.53305049 66.56448026 -148.32415141 56.37479604 -136.625 47.3125 C-136.05330078 46.85907227 -135.48160156 46.40564453 -134.89257812 45.93847656 C-107.28198878 24.06913675 -73.64212274 8.19861015 -38.625 3.3125 C-36.49914949 2.94235191 -34.37406377 2.56776717 -32.25 2.1875 C-21.58489412 0.30542249 -10.8043488 0.03795147 0 0 Z"/>
<path transform="translate(965.625,246.6875)" fill="#FBFBFB" d="M0 0 C0.71921631 -0.00261841 1.43843262 -0.00523682 2.17944336 -0.00793457 C15.87908562 -0.01323336 28.95126604 1.51692878 42.375 4.3125 C43.14618164 4.46203125 43.91736328 4.6115625 44.71191406 4.765625 C62.72694971 8.26652262 80.30753954 14.54779562 96.43603516 23.27832031 C98.47532154 24.36600819 100.53593949 25.40080623 102.60546875 26.4296875 C112.64143599 31.47653939 121.53032531 37.40686044 130.375 44.3125 C131.71111328 45.32957031 131.71111328 45.32957031 133.07421875 46.3671875 C140.22678216 51.91877456 146.81196786 58.08665521 153.375 64.3125 C154.13039063 65.02535156 154.88578125 65.73820312 155.6640625 66.47265625 C168.30005592 78.73108014 178.10161521 93.44485256 187.21289062 108.40820312 C188.26199476 110.12732335 189.32546127 111.83765879 190.390625 113.546875 C194.03882559 119.54261336 196.80358413 125.51258172 199.1953125 132.109375 C200.31604171 135.15241459 201.56961152 138.09497092 202.875 141.0625 C207.22046807 151.44258361 210.03227168 162.36700877 212.5625 173.3125 C212.71726807 173.96234863 212.87203613 174.61219727 213.03149414 175.28173828 C216.06517907 189.00343009 216.75452064 202.93489333 216.6875 216.9375 C216.68600952 217.7153183 216.68451904 218.4931366 216.6829834 219.29452515 C216.619832 237.73214133 215.05126993 255.66526391 209.375 273.3125 C209.04661133 274.34020508 208.71822266 275.36791016 208.37988281 276.42675781 C200.7830217 300.03719386 200.7830217 300.03719386 196.375 309.3125 C196.07754883 309.95058594 195.78009766 310.58867188 195.47363281 311.24609375 C188.14864403 326.78248361 179.22975729 341.00358908 168.375 354.3125 C167.88757324 354.91352539 167.40014648 355.51455078 166.89794922 356.13378906 C165.3999415 357.97240551 163.89058549 359.80085518 162.375 361.625 C161.90586182 362.19500732 161.43672363 362.76501465 160.95336914 363.35229492 C159.80568207 364.71175884 158.5954146 366.01792826 157.375 367.3125 C156.715 367.3125 156.055 367.3125 155.375 367.3125 C155.10558594 367.90675781 154.83617187 368.50101563 154.55859375 369.11328125 C150.48911189 376.67472775 141.9488827 382.09282 135.375 387.3125 C133.90740234 388.50552734 133.90740234 388.50552734 132.41015625 389.72265625 C94.31531207 420.03519935 45.79634044 435.47523869 -2.5625 435.5 C-3.81740234 435.51224609 -5.07230469 435.52449219 -6.36523438 435.53710938 C-14.96049212 435.55040787 -23.15270114 434.71695637 -31.625 433.3125 C-33.18191349 433.08464042 -34.73915541 432.85900067 -36.296875 432.63671875 C-79.53597444 426.04618058 -122.20946539 404.99242173 -152.625 373.3125 C-153.8315625 372.1059375 -153.8315625 372.1059375 -155.0625 370.875 C-155.908125 370.029375 -156.75375 369.18375 -157.625 368.3125 C-158.23472656 367.74917969 -158.84445312 367.18585938 -159.47265625 366.60546875 C-176.86039222 350.10132009 -188.99434263 328.56865923 -199.625 307.3125 C-199.93920898 306.7035791 -200.25341797 306.0946582 -200.57714844 305.46728516 C-207.35270179 292.20180743 -210.3285681 277.75167153 -213.625 263.3125 C-213.92434448 262.01252075 -213.92434448 262.01252075 -214.22973633 260.6862793 C-223.86587657 218.22578339 -218.76522972 172.16889557 -201.625 132.3125 C-201.15755371 131.21035156 -201.15755371 131.21035156 -200.68066406 130.0859375 C-193.38408589 113.09919467 -183.87147999 97.09232444 -171.97949219 82.92724609 C-170.6087796 81.29316299 -169.26045471 79.6424341 -167.9140625 77.98828125 C-158.53305049 66.56448026 -148.32415141 56.37479604 -136.625 47.3125 C-136.05330078 46.85907227 -135.48160156 46.40564453 -134.89257812 45.93847656 C-107.28198878 24.06913675 -73.64212274 8.19861015 -38.625 3.3125 C-36.49914949 2.94235191 -34.37406377 2.56776717 -32.25 2.1875 C-21.58489412 0.30542249 -10.8043488 0.03795147 0 0 Z M-101.625 83.3125 C-102.49125 83.95832031 -103.3575 84.60414063 -104.25 85.26953125 C-118.34501499 96.23931226 -130.86536023 109.35647921 -140.625 124.3125 C-141.02122559 124.91771484 -141.41745117 125.52292969 -141.82568359 126.14648438 C-154.49540254 145.77959352 -163.09095936 167.1781263 -166.625 190.3125 C-166.81320312 191.37855469 -167.00140625 192.44460938 -167.1953125 193.54296875 C-174.12022521 236.70175569 -162.01036865 280.07756914 -137.37890625 315.546875 C-131.98031147 322.9759573 -125.94273619 329.67175174 -119.625 336.3125 C-119.00496094 336.99699219 -118.38492188 337.68148438 -117.74609375 338.38671875 C-91.99394702 365.86719748 -50.06591432 383.90284855 -12.58886719 385.43676758 C8.30619437 385.91843364 27.35306416 384.4601396 47.375 378.3125 C48.01550293 378.11849609 48.65600586 377.92449219 49.31591797 377.72460938 C67.71035251 372.04536715 85.34524963 363.38931365 100.375 351.3125 C101.18324219 350.67127197 101.18324219 350.67127197 102.0078125 350.01708984 C120.48674979 335.24379253 135.29253503 318.27018974 146.375 297.3125 C147.24705078 295.75789063 147.24705078 295.75789063 148.13671875 294.171875 C160.78519283 270.63718614 166.54936649 244.01655985 166.5625 217.5 C166.57474609 216.21029297 166.58699219 214.92058594 166.59960938 213.59179688 C166.61172541 205.60733282 165.95877567 198.1330508 164.375 190.3125 C164.22361572 189.49724854 164.07223145 188.68199707 163.91625977 187.84204102 C161.89000819 177.00698709 159.22651573 166.64641297 155.375 156.3125 C154.82392578 154.81203125 154.82392578 154.81203125 154.26171875 153.28125 C145.87953277 131.85050646 131.75475589 113.28276199 115.375 97.3125 C114.78976562 96.68214844 114.20453125 96.05179688 113.6015625 95.40234375 C85.59489029 65.8860182 43.36584122 51.36078048 3.5546875 50.0390625 C-34.80286746 49.28844077 -70.92430676 59.72006386 -101.625 83.3125 Z"/>
<path transform="translate(965.625,246.6875)" fill="#2B2D2C" d="M0 0 C0.71921631 -0.00261841 1.43843262 -0.00523682 2.17944336 -0.00793457 C15.87908562 -0.01323336 28.95126604 1.51692878 42.375 4.3125 C43.14618164 4.46203125 43.91736328 4.6115625 44.71191406 4.765625 C62.72694971 8.26652262 80.30753954 14.54779562 96.43603516 23.27832031 C98.47532154 24.36600819 100.53593949 25.40080623 102.60546875 26.4296875 C112.64143599 31.47653939 121.53032531 37.40686044 130.375 44.3125 C131.71111328 45.32957031 131.71111328 45.32957031 133.07421875 46.3671875 C140.22678216 51.91877456 146.81196786 58.08665521 153.375 64.3125 C154.13039063 65.02535156 154.88578125 65.73820312 155.6640625 66.47265625 C168.30005592 78.73108014 178.10161521 93.44485256 187.21289062 108.40820312 C188.26199476 110.12732335 189.32546127 111.83765879 190.390625 113.546875 C194.03882559 119.54261336 196.80358413 125.51258172 199.1953125 132.109375 C200.31604171 135.15241459 201.56961152 138.09497092 202.875 141.0625 C207.22046807 151.44258361 210.03227168 162.36700877 212.5625 173.3125 C212.71726807 173.96234863 212.87203613 174.61219727 213.03149414 175.28173828 C216.06517907 189.00343009 216.75452064 202.93489333 216.6875 216.9375 C216.68600952 217.7153183 216.68451904 218.4931366 216.6829834 219.29452515 C216.619832 237.73214133 215.05126993 255.66526391 209.375 273.3125 C209.04661133 274.34020508 208.71822266 275.36791016 208.37988281 276.42675781 C200.7830217 300.03719386 200.7830217 300.03719386 196.375 309.3125 C196.07754883 309.95058594 195.78009766 310.58867188 195.47363281 311.24609375 C188.14864403 326.78248361 179.22975729 341.00358908 168.375 354.3125 C167.88757324 354.91352539 167.40014648 355.51455078 166.89794922 356.13378906 C165.3999415 357.97240551 163.89058549 359.80085518 162.375 361.625 C161.90586182 362.19500732 161.43672363 362.76501465 160.95336914 363.35229492 C159.80568207 364.71175884 158.5954146 366.01792826 157.375 367.3125 C156.715 367.3125 156.055 367.3125 155.375 367.3125 C155.10558594 367.90675781 154.83617187 368.50101563 154.55859375 369.11328125 C150.48911189 376.67472775 141.9488827 382.09282 135.375 387.3125 C133.90740234 388.50552734 133.90740234 388.50552734 132.41015625 389.72265625 C94.31531207 420.03519935 45.79634044 435.47523869 -2.5625 435.5 C-3.81740234 435.51224609 -5.07230469 435.52449219 -6.36523438 435.53710938 C-14.96049212 435.55040787 -23.15270114 434.71695637 -31.625 433.3125 C-33.18191349 433.08464042 -34.73915541 432.85900067 -36.296875 432.63671875 C-79.53597444 426.04618058 -122.20946539 404.99242173 -152.625 373.3125 C-153.8315625 372.1059375 -153.8315625 372.1059375 -155.0625 370.875 C-155.908125 370.029375 -156.75375 369.18375 -157.625 368.3125 C-158.23472656 367.74917969 -158.84445312 367.18585938 -159.47265625 366.60546875 C-176.86039222 350.10132009 -188.99434263 328.56865923 -199.625 307.3125 C-199.93920898 306.7035791 -200.25341797 306.0946582 -200.57714844 305.46728516 C-207.35270179 292.20180743 -210.3285681 277.75167153 -213.625 263.3125 C-213.92434448 262.01252075 -213.92434448 262.01252075 -214.22973633 260.6862793 C-223.86587657 218.22578339 -218.76522972 172.16889557 -201.625 132.3125 C-201.15755371 131.21035156 -201.15755371 131.21035156 -200.68066406 130.0859375 C-193.38408589 113.09919467 -183.87147999 97.09232444 -171.97949219 82.92724609 C-170.6087796 81.29316299 -169.26045471 79.6424341 -167.9140625 77.98828125 C-158.53305049 66.56448026 -148.32415141 56.37479604 -136.625 47.3125 C-136.05330078 46.85907227 -135.48160156 46.40564453 -134.89257812 45.93847656 C-107.28198878 24.06913675 -73.64212274 8.19861015 -38.625 3.3125 C-36.49914949 2.94235191 -34.37406377 2.56776717 -32.25 2.1875 C-21.58489412 0.30542249 -10.8043488 0.03795147 0 0 Z M-40.625 26.3125 C-41.594375 26.49425781 -42.56375 26.67601562 -43.5625 26.86328125 C-77.03583769 33.82266141 -107.70451012 51.25344915 -132.625 74.3125 C-133.594375 75.16714844 -134.56375 76.02179688 -135.5625 76.90234375 C-157.32220438 96.14165943 -172.75405799 121.58998261 -183.625 148.3125 C-184.09550781 149.44429688 -184.56601562 150.57609375 -185.05078125 151.7421875 C-203.01401868 198.12404514 -198.58348192 252.17020215 -179.15234375 297.15234375 C-170.27324168 316.89716594 -158.48743781 334.58562706 -143.625 350.3125 C-142.70098389 351.30008301 -142.70098389 351.30008301 -141.75830078 352.30761719 C-106.26469561 389.9520795 -58.13043446 410.34411088 -6.79296875 412.66796875 C10.72389587 413.17266675 27.26207084 410.82678632 44.375 407.3125 C45.55473389 407.08071045 45.55473389 407.08071045 46.75830078 406.84423828 C77.46542846 400.64571116 106.16943399 382.73723372 129.375 362.3125 C130.14585937 361.66410156 130.91671875 361.01570313 131.7109375 360.34765625 C136.42730183 356.36314156 140.40527284 352.03048922 144.375 347.3125 C145.2103125 346.36503906 146.045625 345.41757812 146.90625 344.44140625 C166.24679667 322.37581996 177.59602914 297.53762908 186.56274414 269.80419922 C187.19145961 267.87553373 187.84627245 265.95536491 188.51171875 264.0390625 C189.54222494 260.78434158 190.25910491 257.53330195 190.9375 254.1875 C191.31068359 252.38925781 191.31068359 252.38925781 191.69140625 250.5546875 C193.67711612 239.23229617 193.61520883 227.70826494 193.625 216.25 C193.62600708 215.42957214 193.62701416 214.60914429 193.62805176 213.76385498 C193.61803121 201.68879501 193.15411758 190.11177077 190.375 178.3125 C189.95734375 176.45431641 189.95734375 176.45431641 189.53125 174.55859375 C188.59869106 170.76806324 187.53932663 167.03672559 186.375 163.3125 C186.14329102 162.5695166 185.91158203 161.8265332 185.67285156 161.06103516 C177.54013573 135.49583771 165.22455938 111.52601254 147.375 91.3125 C146.9507373 90.82942383 146.52647461 90.34634766 146.08935547 89.84863281 C121.11141931 61.58252791 90.17681969 42.04134534 54.375 30.3125 C53.03115234 29.80203125 53.03115234 29.80203125 51.66015625 29.28125 C46.56692362 27.77932171 41.36661217 27.05995535 36.125 26.25 C35.04347656 26.07662109 33.96195313 25.90324219 32.84765625 25.72460938 C21.49418976 23.93736284 10.56331584 23.1516533 -0.9375 23.1875 C-2.78118164 23.18169922 -2.78118164 23.18169922 -4.66210938 23.17578125 C-16.81727526 23.18860992 -28.68441503 23.99590213 -40.625 26.3125 Z"/>
<path transform="translate(941,329)" fill="#FDFDFD" d="M0 0 C14.19 0 28.38 0 43 0 C43 9.9 43 19.8 43 30 C46.96 30.99 50.92 31.98 55 33 C57.97774142 34.15573268 60.76956709 35.30247616 63.625 36.6875 C64.34937256 37.03417725 65.07374512 37.38085449 65.82006836 37.73803711 C71.90133753 40.75181757 76.96194921 44.45188809 82 49 C83.03833984 49.82757813 83.03833984 49.82757813 84.09765625 50.671875 C92.97948599 57.85948288 100.17428024 67.91448403 103 79 C95.78725201 82.12408446 88.5007533 84.97491486 81.125 87.6875 C80.31699951 87.98470947 79.50899902 88.28191895 78.67651367 88.58813477 C64.73790842 93.68205879 64.73790842 93.68205879 61 92 C60.05791245 90.82737139 59.1683258 89.61199192 58.3125 88.375 C52.27946765 79.76519936 42.38966776 74.55900164 32.22265625 72.4140625 C18.7305289 70.68052856 7.33613493 71.44267464 -3.984375 79.37890625 C-7.35683802 82.09125538 -10.04938223 85.09876446 -12 89 C-12.12240135 90.76770327 -12.17551153 92.54060462 -12.1875 94.3125 C-12.20167969 95.25738281 -12.21585938 96.20226562 -12.23046875 97.17578125 C-11.98087592 100.23435107 -11.46995572 102.30585403 -10 105 C-8.19129875 106.2457726 -8.19129875 106.2457726 -6 107 C-5.24847656 107.37898438 -4.49695313 107.75796875 -3.72265625 108.1484375 C5.26444442 112.29226953 14.43466111 113.76494243 24.11767578 115.47753906 C47.43786717 119.70464473 70.67524545 124.97934033 89 141 C89.62519531 141.54269531 90.25039062 142.08539063 90.89453125 142.64453125 C98.07458996 149.32401942 102.48599564 157.58781295 105 167 C105.350625 168.22332031 105.70125 169.44664062 106.0625 170.70703125 C107.16897414 175.18502172 107.29676575 179.46776499 107.25 184.0625 C107.25773437 184.82626953 107.26546875 185.59003906 107.2734375 186.37695312 C107.2248884 200.56542661 99.44353716 214.81397722 89.94921875 225.0703125 C77.924888 236.97415897 60.1695239 247 43 247 C43 254.92 43 262.84 43 271 C28.81 271 14.62 271 0 271 C0 262.09 0 253.18 0 244 C-2.97 243.34 -5.94 242.68 -9 242 C-11.85585593 240.88597575 -14.56037892 239.75703658 -17.3125 238.4375 C-18.04670166 238.08743896 -18.78090332 237.73737793 -19.53735352 237.37670898 C-26.36139024 234.00976697 -32.17363818 229.91572929 -38 225 C-38.85980469 224.27941406 -39.71960938 223.55882812 -40.60546875 222.81640625 C-57.54429236 208.08356897 -57.54429236 208.08356897 -59 201 C-54.64316612 197.84802629 -50.28430155 194.69891734 -45.921875 191.5546875 C-42.8820954 189.36297093 -39.85027577 187.1612627 -36.828125 184.9453125 C-35.59378143 184.04683182 -34.35940832 183.14839171 -33.125 182.25 C-32.56151855 181.83250488 -31.99803711 181.41500977 -31.41748047 180.98486328 C-28.67836094 179.00107417 -26.3852048 177.49060939 -23 177 C-22.45472656 177.64066406 -21.90945313 178.28132812 -21.34765625 178.94140625 C-10.64780387 191.21422839 3.06876999 201.79306018 19.87719727 203.24926758 C38.57159596 204.56922919 38.57159596 204.56922919 55 197 C59.1654692 193.06277569 62.12404758 189.58210636 62.3125 183.75 C62.22961232 179.04800774 61.23252615 176.55577877 58 173 C48.68578837 165.34264332 35.7311828 163.2989284 24.25 160.9375 C23.01934814 160.67710937 21.78869629 160.41671875 20.52075195 160.1484375 C14.72701719 158.9326429 8.93586571 157.78670102 3.09570312 156.81958008 C-16.20576157 153.58702925 -35.24882941 144.03147712 -46.875 127.9375 C-56.30078814 113.55542889 -59.39839639 98.36249416 -56.34375 81.34375 C-50.99455532 62.34488614 -38.99884976 47.72229656 -22 38 C-14.77140087 34.08160833 -8.24871239 31.17838748 0 30 C0 20.1 0 10.2 0 0 Z"/>
<path transform="translate(953.625,817.75)" fill="#FDFDFD" d="M0 0 C1.84247314 -0.00101212 1.84247314 -0.00101212 3.72216797 -0.00204468 C21.83075212 0.01375456 39.45042187 0.52433518 57.375 3.25 C59.34763637 3.53045905 61.32027456 3.81090552 63.29296875 4.09095764 C77.22198018 6.08836848 90.96811867 8.4000834 104.41259766 12.64257812 C106.38464528 13.2529855 108.36487517 13.81272775 110.35546875 14.359375 C119.11850124 16.78839652 127.68765904 19.69008409 136.25 22.75 C137.28390869 23.11770508 138.31781738 23.48541016 139.38305664 23.86425781 C145.40191695 26.04626951 151.24516005 28.46063852 157.04711914 31.16796875 C158.99118593 32.07159791 160.96168456 32.91807771 162.9375 33.75 C164.071875 34.245 165.20625 34.74 166.375 35.25 C167.56416016 35.75080078 167.56416016 35.75080078 168.77734375 36.26171875 C175.58212929 39.34177957 180.96515715 43.43031431 184.375 50.25 C185.29175243 57.68845963 184.88612263 63.32708637 180.19921875 69.3359375 C175.78430972 73.96828317 171.86285053 76.51216222 165.3359375 76.69140625 C158.63278444 76.56373245 153.58471977 74.10789883 147.6875 71.125 C145.55903617 70.10312921 143.42882471 69.08489054 141.296875 68.0703125 C140.27529297 67.57950195 139.25371094 67.08869141 138.20117188 66.58300781 C125.17969888 60.44122805 111.35456472 56.84294518 97.49853516 53.10693359 C94.58608728 52.30791124 91.68886317 51.47007622 88.79296875 50.61328125 C74.82800334 46.53166297 60.80636364 44.04462509 46.375 42.25 C45.7111026 42.16312927 45.0472052 42.07625854 44.3631897 41.98675537 C30.3885073 40.1834806 16.51706058 39.85181444 2.4375 39.875 C0.73796173 39.87481873 0.73796173 39.87481873 -0.99591064 39.87463379 C-21.11211678 39.90501707 -40.74753871 41.19030023 -60.625 44.25 C-61.7397168 44.42080078 -62.85443359 44.59160156 -64.00292969 44.76757812 C-75.70274718 46.6200795 -87.19712143 49.13352278 -98.625 52.25 C-99.57842285 52.5068457 -100.5318457 52.76369141 -101.51416016 53.02832031 C-116.64904027 57.06770941 -116.64904027 57.06770941 -131.4375 62.1875 C-137.55837475 64.46118287 -143.13780433 65.30974036 -149.625 64.25 C-154.53213015 61.93026575 -157.4361048 58.53223069 -160.625 54.25 C-162.69653537 48.03539389 -162.75839655 40.6911618 -160 34.75 C-150.11565144 24.34542257 -136.85383845 21.20958965 -123.5 17.0625 C-122.4284668 16.72951904 -121.35693359 16.39653809 -120.25292969 16.0534668 C-112.77616416 13.78247061 -105.25613811 11.92374647 -97.625 10.25 C-96.39265625 9.9715625 -95.1603125 9.693125 -93.890625 9.40625 C-80.65412334 6.52576777 -67.44471225 4.26457443 -54 2.625 C-52.9999292 2.50189453 -51.9998584 2.37878906 -50.96948242 2.25195312 C-33.97960569 0.25557712 -17.08804062 0.00844101 0 0 Z"/>
<path transform="translate(557.9375,1041.625)" fill="#FDFDFD" d="M0 0 C1.26360352 -0.01740234 1.26360352 -0.01740234 2.55273438 -0.03515625 C8.55558247 -0.00742947 13.50156267 1.16216792 19.0625 3.375 C19.75674072 3.64401123 20.45098145 3.91302246 21.16625977 4.19018555 C31.6137774 8.44792107 38.67930785 18.36473685 43.0625 28.375 C46.91399565 37.90378683 46.43327943 49.86045737 43 59.4375 C36.86685084 73.15502235 26.95019047 80.97686515 13.296875 86.4921875 C3.00239109 89.30203456 -9.57587898 88.50644755 -18.9375 83.375 C-29.22448403 77.33636987 -37.06074764 68.77721283 -40.9375 57.375 C-44.03576303 45.18548341 -43.3519976 32.23114951 -36.9921875 21.36328125 C-27.7687595 7.94898007 -16.55262352 -0.22692096 0 0 Z"/>
<path transform="translate(1516.51953125,932.55078125)" fill="#FCFCFC" d="M0 0 C9.99044921 5.83693962 16.73466679 14.5367557 20.35546875 25.44921875 C22.94666656 36.35707538 23.44963697 49.63916513 17.48046875 59.44921875 C14.98722843 63.26975819 12.33187251 66.88924972 9.48046875 70.44921875 C9.01253906 71.05636719 8.54460937 71.66351562 8.0625 72.2890625 C6.85546875 73.69921875 6.85546875 73.69921875 4.48046875 75.44921875 C-7.93366725 74.50237787 -18.36383761 65.14085797 -26.51953125 56.44921875 C-35.92112796 44.89435311 -41.28878611 35.11689015 -40.92578125 19.9765625 C-40.04200709 12.30302342 -35.49234227 7.7400943 -29.6796875 2.9921875 C-20.44830714 -3.60165561 -10.43492772 -4.72806741 0 0 Z"/>
<path transform="translate(412.32421875,777.328125)" fill="#353636" d="M0 0 C0.55300781 0.22171875 1.10601562 0.4434375 1.67578125 0.671875 C0.68578125 1.991875 -0.30421875 3.311875 -1.32421875 4.671875 C-1.32421875 4.011875 -1.32421875 3.351875 -1.32421875 2.671875 C-3.48275516 3.49683565 -3.48275516 3.49683565 -4.26171875 5.609375 C-5.32421875 7.671875 -5.32421875 7.671875 -8.32421875 9.671875 C-9.31421875 11.156875 -9.31421875 11.156875 -10.32421875 12.671875 C-11.88671875 10.859375 -11.88671875 10.859375 -13.32421875 8.671875 C-12.07557598 4.92594669 -10.83598941 4.42714515 -7.51171875 2.421875 C-6.63902344 1.88046875 -5.76632812 1.3390625 -4.8671875 0.78125 C-2.32421875 -0.328125 -2.32421875 -0.328125 0 0 Z"/>
<path transform="translate(863,331)" fill="#323433" d="M0 0 C0.99 0.66 1.98 1.32 3 2 C0.47043472 5.0916909 -2.22454612 5.90931332 -6 7 C-5.67 7.66 -5.34 8.32 -5 9 C-5.99 9 -6.98 9 -8 9 C-8 9.99 -8 10.98 -8 12 C-9.96466413 13.06775224 -11.96855359 14.06553465 -14 15 C-14.66 14.67 -15.32 14.34 -16 14 C-10.96965614 8.76433598 -6.07070905 4.00408469 0 0 Z"/>
<path transform="translate(427,825)" fill="#303231" d="M0 0 C1.65 1.65 3.3 3.3 5 5 C4.67 5.99 4.34 6.98 4 8 C4.38932856 10.14255793 4.38932856 10.14255793 5 12 C4.34 12 3.68 12 3 12 C2.16151196 10.54462432 1.32936066 9.08559627 0.5 7.625 C-0.19609375 6.40683594 -0.19609375 6.40683594 -0.90625 5.1640625 C-2 3 -2 3 -2 1 C-1.34 0.67 -0.68 0.34 0 0 Z"/>
<path transform="translate(1022,416)" fill="#333434" d="M0 0 C0.66 0.66 1.32 1.32 2 2 C-0.77079887 5.80984844 -4.62868145 6.06840752 -9 7 C-9 5.68 -9 4.36 -9 3 C-6.03 2.01 -3.06 1.02 0 0 Z"/>
<path transform="translate(1318,1442)" fill="#323333" d="M0 0 C2.97 0.495 2.97 0.495 6 1 C4.88333826 4.34998521 4.25305075 4.79340222 1.4375 6.6875 C0.79683594 7.12449219 0.15617187 7.56148437 -0.50390625 8.01171875 C-0.99761719 8.33785156 -1.49132813 8.66398437 -2 9 C-3.125 5.25 -3.125 5.25 -2 3 C-1.34 3 -0.68 3 0 3 C0 2.01 0 1.02 0 0 Z"/>
<path transform="translate(1520,1058)" fill="#363737" d="M0 0 C-8.44827586 7 -8.44827586 7 -12 7 C-12 6.34 -12 5.68 -12 5 C-11.34 5 -10.68 5 -10 5 C-9.731875 4.195625 -9.46375 3.39125 -9.1875 2.5625 C-8.5996875 1.2940625 -8.5996875 1.2940625 -8 0 C-4.71023192 -1.09658936 -3.28696233 -0.79953138 0 0 Z"/>
<path transform="translate(1600,976)" fill="#313332" d="M0 0 C1.32 0.66 2.64 1.32 4 2 C3.67 3.32 3.34 4.64 3 6 C3 5.34 3 4.68 3 4 C2.34 4 1.68 4 1 4 C0.67 4.99 0.34 5.98 0 7 C-0.99 7 -1.98 7 -3 7 C-3 6.34 -3 5.68 -3 5 C-3.66 4.67 -4.32 4.34 -5 4 C-3.35 2.68 -1.7 1.36 0 0 Z"/>
<path transform="translate(1061,596)" fill="#323433" d="M0 0 C0.33 0.66 0.66 1.32 1 2 C1.99 2.33 2.98 2.66 4 3 C2.90554162 3.86657116 1.79902219 4.71792724 0.6875 5.5625 C0.07261719 6.03816406 -0.54226563 6.51382813 -1.17578125 7.00390625 C-1.77777344 7.33261719 -2.37976562 7.66132812 -3 8 C-3.99 7.67 -4.98 7.34 -6 7 C-5.67 6.34 -5.34 5.68 -5 5 C-4.71125 4.319375 -4.4225 3.63875 -4.125 2.9375 C-3 1 -3 1 0 0 Z"/>
<path transform="translate(1104,760)" fill="#383A39" d="M0 0 C8.57142857 0.85714286 8.57142857 0.85714286 12 3 C10.68 3 9.36 3 8 3 C7.67 3.99 7.34 4.98 7 6 C5.02 5.34 3.04 4.68 1 4 C1 3.34 1 2.68 1 2 C0.67 1.34 0.34 0.68 0 0 Z"/>
<path transform="translate(1009,362)" fill="#313332" d="M0 0 C0.66 0.33 1.32 0.66 2 1 C2 1.66 2 2.32 2 3 C3.9600281 4.63676257 3.9600281 4.63676257 6 6 C0.58461538 7.23076923 0.58461538 7.23076923 -2.375 6.0625 C-2.91125 5.711875 -3.4475 5.36125 -4 5 C-4 4.34 -4 3.68 -4 3 C-3.34 3 -2.68 3 -2 3 C-2 2.34 -2 1.68 -2 1 C-1.34 0.67 -0.68 0.34 0 0 Z"/>
<path transform="translate(1287,844)" fill="#303131" d="M0 0 C3.99455527 0.61454696 6.74466336 2.70646737 10 5 C7 7 7 7 4.3125 6.625 C3.549375 6.41875 2.78625 6.2125 2 6 C1.34 4.02 0.68 2.04 0 0 Z"/>
<path transform="translate(395,1079)" fill="#333534" d="M0 0 C0.66 0.66 1.32 1.32 2 2 C1.02617818 4.51570636 0.53848865 5.73944098 -1.9375 6.9375 C-4 7 -4 7 -5.75 5.5625 C-6.1625 5.046875 -6.575 4.53125 -7 4 C-4.69 2.68 -2.38 1.36 0 0 Z"/>
<path transform="translate(1532,993)" fill="#373938" d="M0 0 C0.99 0.66 1.98 1.32 3 2 C1.77065985 5.68802044 0.06140622 6.72356973 -3 9 C-3.66 8.67 -4.32 8.34 -5 8 C-3.35 5.36 -1.7 2.72 0 0 Z"/>
<path transform="translate(1484,981)" fill="#343635" d="M0 0 C2.66735273 2.48952921 4.55746343 4.63408134 6 8 C4.35 8.33 2.7 8.66 1 9 C-1.09230769 4.56923077 -1.09230769 4.56923077 -0.625 1.6875 C-0.41875 1.130625 -0.2125 0.57375 0 0 Z"/>
<path transform="translate(1096,361)" fill="#323433" d="M0 0 C2.66735273 2.48952921 4.55746343 4.63408134 6 8 C2 8 2 8 0.1875 6.25 C-1 4 -1 4 -0.6875 1.75 C-0.460625 1.1725 -0.23375 0.595 0 0 Z"/>
<path transform="translate(672,792)" fill="#454645" d="M0 0 C0.66 0.33 1.32 0.66 2 1 C0.34387276 4.31225448 -2.64497931 4.76982575 -6 6 C-8.9375 6.1875 -8.9375 6.1875 -11 6 C-8.88613536 3.88613536 -7.20732397 3.02991678 -4.5 1.8125 C-3.7059375 1.44769531 -2.911875 1.08289063 -2.09375 0.70703125 C-1.4028125 0.47371094 -0.711875 0.24039063 0 0 Z"/>
<path transform="translate(846,346)" fill="#363837" d="M0 0 C0 3.77910478 -0.99703962 4.46106101 -3.5 7.1875 C-4.1496875 7.90292969 -4.799375 8.61835938 -5.46875 9.35546875 C-5.9740625 9.89816406 -6.479375 10.44085938 -7 11 C-7.99 10.67 -8.98 10.34 -10 10 C-6.7 6.7 -3.4 3.4 0 0 Z"/>
<path transform="translate(615,822)" fill="#303231" d="M0 0 C0.66 0.66 1.32 1.32 2 2 C1.34 2 0.68 2 0 2 C-0.268125 2.639375 -0.53625 3.27875 -0.8125 3.9375 C-2 6 -2 6 -5 7 C-4.75 4.625 -4.75 4.625 -4 2 C-1.9375 0.6875 -1.9375 0.6875 0 0 Z"/>
<path transform="translate(1115,391)" fill="#3E403F" d="M0 0 C2.6855594 2.6855594 3.06049974 5.37621328 4 9 C1.13275314 8.42655063 0.1385485 8.1385485 -2 6 C-1.34 4.02 -0.68 2.04 0 0 Z"/>
<path transform="translate(1095,291)" fill="#333534" d="M0 0 C4.455 2.97 4.455 2.97 9 6 C8.34 6.66 7.68 7.32 7 8 C6.34 7.67 5.68 7.34 5 7 C5 6.34 5 5.68 5 5 C2.525 4.01 2.525 4.01 0 3 C0 2.01 0 1.02 0 0 Z"/>
<path transform="translate(1407,1345)" fill="#303231" d="M0 0 C1.32 0 2.64 0 4 0 C3.34 1.65 2.68 3.3 2 5 C0.68 4.67 -0.64 4.34 -2 4 C-1 1 -1 1 0 0 Z M-4 4 C-3.34 4 -2.68 4 -2 4 C-2.33 4.66 -2.66 5.32 -3 6 C-3.33 5.34 -3.66 4.68 -4 4 Z"/>
<path transform="translate(403,781)" fill="#454646" d="M0 0 C0.66 0.33 1.32 0.66 2 1 C1.690625 1.5775 1.38125 2.155 1.0625 2.75 C0.07416636 4.84294184 -0.5168613 6.74535275 -1 9 C-2.5625 7.1875 -2.5625 7.1875 -4 5 C-3 2 -3 2 0 0 Z"/>
<path transform="translate(819,544)" fill="#333534" d="M0 0 C2 1.125 2 1.125 4 3 C4.25 6.1875 4.25 6.1875 4 9 C1.74754119 6.31158141 0.11786042 4.35358125 -1 1 C-0.67 0.67 -0.34 0.34 0 0 Z"/>
<path transform="translate(908,509)" fill="#3A3C3B" d="M0 0 C0.66 0 1.32 0 2 0 C0.5361389 4.39158329 -1.97831338 4.87947433 -6 7 C-6 5.68 -6 4.36 -6 3 C-4.125 1.9375 -4.125 1.9375 -2 1 C-1.34 1.33 -0.68 1.66 0 2 C0 1.34 0 0.68 0 0 Z"/>
<path transform="translate(1589,986)" fill="#363737" d="M0 0 C0 3 0 3 -2.25 5.625 C-4.72881204 7.76579221 -5.83568489 8.64840943 -9 9 C-6 6 -3 3 0 0 Z"/>
<path transform="translate(464,961)" fill="#3B3C3C" d="M0 0 C0.66 0.99 1.32 1.98 2 3 C0.35 4.98 -1.3 6.96 -3 9 C-3.66 8.67 -4.32 8.34 -5 8 C-3.35 5.36 -1.7 2.72 0 0 Z"/>
<path transform="translate(731,770)" fill="#3E3F3E" d="M0 0 C-0.66 1.98 -1.32 3.96 -2 6 C-2.33 5.34 -2.66 4.68 -3 4 C-5.52733235 3.34444881 -5.52733235 3.34444881 -8 3 C-5.22569089 1.15046059 -3.35957737 0 0 0 Z"/>
<path transform="translate(988,408)" fill="#2F3130" d="M0 0 C2.8992226 0.46761655 3.86675182 0.86675182 6 3 C4.02 3.66 2.04 4.32 0 5 C-0.5625 3.0625 -0.5625 3.0625 -1 1 C-0.67 0.67 -0.34 0.34 0 0 Z"/>
<path transform="translate(894,312)" fill="#303231" d="M0 0 C0 2.62113708 -0.31292445 4.50935112 -1 7 C-1.66 7 -2.32 7 -3 7 C-4.625 5 -4.625 5 -6 3 C-4.02 2.01 -2.04 1.02 0 0 Z"/>
<path transform="translate(821,881)" fill="#5B5C5B" d="M0 0 C-1.17578125 1.51953125 -1.17578125 1.51953125 -3 3 C-5.48046875 3.07421875 -5.48046875 3.07421875 -8.1875 2.6875 C-9.53908203 2.50767578 -9.53908203 2.50767578 -10.91796875 2.32421875 C-11.94857422 2.16373047 -11.94857422 2.16373047 -13 2 C-13 1.67 -13 1.34 -13 1 C-11.20994059 0.63779734 -9.41787943 0.28547531 -7.625 -0.0625 C-6.12839844 -0.35833984 -6.12839844 -0.35833984 -4.6015625 -0.66015625 C-2 -1 -2 -1 0 0 Z"/>
<path transform="translate(653,804)" fill="#414242" d="M0 0 C-1.0625 1.5 -1.0625 1.5 -3 3 C-6.6875 3.1875 -6.6875 3.1875 -10 3 C-4.375 -1.3125 -4.375 -1.3125 0 0 Z"/>
<path transform="translate(438,1009)" fill="#414342" d="M0 0 C0.33 0.66 0.66 1.32 1 2 C0.22265625 3.7265625 0.22265625 3.7265625 -0.9375 5.625 C-1.618125 6.73875 -2.29875 7.8525 -3 9 C-3.66 9 -4.32 9 -5 9 C-3.90931332 5.22454612 -3.0916909 2.52956528 0 0 Z"/>
<path transform="translate(1572,940)" fill="#434444" d="M0 0 C2 3 2 3 2 7 C-0.475 6.01 -0.475 6.01 -3 5 C-1.125 1.125 -1.125 1.125 0 0 Z"/>
<path transform="translate(1116,310)" fill="#313332" d="M0 0 C1.32 0.66 2.64 1.32 4 2 C4 2.99 4 3.98 4 5 C1.5625 4.625 1.5625 4.625 -1 4 C-1.33 3.34 -1.66 2.68 -2 2 C-1.34 2 -0.68 2 0 2 C0 1.34 0 0.68 0 0 Z"/>
<path transform="translate(548.0625,1441.25)" fill="#373938" d="M0 0 C0.639375 0.2475 1.27875 0.495 1.9375 0.75 C2.2675 1.74 2.5975 2.73 2.9375 3.75 C1.9475 4.08 0.9575 4.41 -0.0625 4.75 C-1.3825 3.43 -2.7025 2.11 -4.0625 0.75 C-2.0625 -0.25 -2.0625 -0.25 0 0 Z"/>
<path transform="translate(536,1435)" fill="#3D3E3D" d="M0 0 C2.875 0.25 2.875 0.25 6 1 C7.375 3.0625 7.375 3.0625 8 5 C5 5 5 5 2.3125 2.5 C1.549375 1.675 0.78625 0.85 0 0 Z"/>
<path transform="translate(837,746)" fill="#484948" d="M0 0 C-0.33 0.66 -0.66 1.32 -1 2 C-3.97 1.67 -6.94 1.34 -10 1 C-10 0.67 -10 0.34 -10 0 C-3.375 -1.125 -3.375 -1.125 0 0 Z"/>
<path transform="translate(1493,992)" fill="#393A39" d="M0 0 C1.65 1.65 3.3 3.3 5 5 C4.67 5.66 4.34 6.32 4 7 C3.34 7 2.68 7 2 7 C0.5393715 4.35261084 0 3.10551666 0 0 Z"/>
<path transform="translate(1545,906)" fill="#323433" d="M0 0 C2.375 0.3125 2.375 0.3125 5 1 C5.66 1.99 6.32 2.98 7 4 C2.25 3.125 2.25 3.125 0 2 C0 1.34 0 0.68 0 0 Z"/>
<path transform="translate(1069,651)" fill="#3C3D3D" d="M0 0 C1.98 0 3.96 0 6 0 C3.82575883 2.50037734 2.26954202 3.43628586 -1 4 C-0.67 2.68 -0.34 1.36 0 0 Z"/>
<path transform="translate(928,418)" fill="#434443" d="M0 0 C2 4 2 4 2 8 C1.34 8.99 0.68 9.98 0 11 C0 7.37 0 3.74 0 0 Z"/>
<path transform="translate(773,418)" fill="#343534" d="M0 0 C0.66 0 1.32 0 2 0 C1.67 2.64 1.34 5.28 1 8 C0.34 8 -0.32 8 -1 8 C-1.04241723 5.66705225 -1.04092937 3.33297433 -1 1 C-0.67 0.67 -0.34 0.34 0 0 Z"/>
</svg>